<svg xmlns:inkscape="http://www.inkscape.org/namespaces/inkscape" xmlns:sodipodi="http://sodipodi.sourceforge.net/DTD/sodipodi-0.dtd" xmlns="http://www.w3.org/2000/svg" xmlns:svg="http://www.w3.org/2000/svg" width="20" height="20" viewBox="0 0 20 20" fill="none" version="1.1" id="svg1" sodipodi:docname="exequextrerrors.svg" xml:space="preserve"><sodipodi:namedview id="namedview1" pagecolor="#ffffff" bordercolor="#000000" borderopacity="0.25" inkscape:showpageshadow="2" inkscape:pageopacity="0.0" inkscape:pagecheckerboard="0" inkscape:deskcolor="#d1d1d1" showgrid="false" fill="#000000"><inkscape:page x="0" y="0" width="20" height="20" id="page2" margin="0" bleed="0" fill="#000000"/></sodipodi:namedview><defs id="defs1" fill="#000000"/><g style="fill:#db404b;fill-opacity:1" id="g38" transform="matrix(0.025,0,0,0.025,-1.9999991,22)"><path d="m 480,-680 q 17,0 28.5,-11.5 Q 520,-703 520,-720 520,-737 508.5,-748.5 497,-760 480,-760 q -17,0 -28.5,11.5 -11.5,11.5 -11.5,28.5 0,17 11.5,28.5 11.5,11.5 28.5,11.5 z m -40,320 h 80 V -600 H 440 Z M 80,-80 v -720 q 0,-33 23.5,-56.5 Q 127,-880 160,-880 h 640 q 33,0 56.5,23.5 23.5,23.5 23.5,56.5 v 480 q 0,33 -23.5,56.5 Q 833,-240 800,-240 H 240 Z M 206,-320 H 800 V -800 H 160 v 525 z m -46,0 v -480 z" id="path1-2" style="fill:#db404b;fill-opacity:1"/></g></svg>