<svg xmlns="http://www.w3.org/2000/svg" version="1.1" xmlns:xlink="http://www.w3.org/1999/xlink" viewBox="4 3.9750000000000014 40 40" width="40" height="40" fill="none"><svg xmlns="http://www.w3.org/2000/svg" height="48px" viewBox="0 -960 960 960" width="48px" fill="#d40055" stroke="#d40055"><path d="m357-513 90-90-75-75-48 48-42-42 48-48-75-74-90 90 192 191Zm346 348 90-91-75-75-48 48-42-42 48-48-74-74-90 90 191 192Zm-87-520 70 70 94-94-70-70-94 94ZM276-120H120v-156l194-194L80-704l174-176 236 235 178-178q9-9 20-13t22-4q11 0 22 4t20 13l71 71q9 9 13 20t4 22q0 11-4 22t-13 20L645-490l235 235L705-81 471-315 276-120Z" fill="#d40055" stroke="#d40055"></path></svg></svg>