<svg xmlns="http://www.w3.org/2000/svg" version="1.1" xmlns:xlink="http://www.w3.org/1999/xlink" viewBox="3.0249999999999986 2 41.95 41.95" width="40" height="40" fill="none"><svg xmlns="http://www.w3.org/2000/svg" height="48px" viewBox="0 -960 960 960" width="48px" fill="#d40055" stroke="#d40055"><path d="M360-860v-60h240v60H360Zm90 447h60v-230h-60v230Zm30 332q-74 0-139.5-28.5T226-187q-49-49-77.5-114.5T120-441q0-74 28.5-139.5T226-695q49-49 114.5-77.5T480-801q67 0 125.5 22T710-717l51-51 43 43-51 51q36 40 61.5 97T840-441q0 74-28.5 139.5T734-187q-49 49-114.5 77.5T480-81Z" fill="#d40055" stroke="#d40055"></path></svg></svg>