<svg xmlns="http://www.w3.org/2000/svg" version="1.1" xmlns:xlink="http://www.w3.org/1999/xlink" viewBox="6 6 38 38" width="40" height="40" fill="none"><svg xmlns="http://www.w3.org/2000/svg" height="48px" viewBox="0 -960 960 960" width="48px" fill="#d40055" stroke="#d40055"><path d="M170-142q-17 9-33.5-1T120-173v-558q0-13 7.5-23t19.5-15l202-71 263 92 178-71q17-8 33.5 1.5T840-788v388q-28-54-78.5-83T654-512q-19 0-38 3t-38 11v-202l-196-66v540l-212 84Zm672 62L741-180q-19 14-40.5 21t-46.5 7q-62 0-106-44t-44-106q0-63 44-106.5T654-452q63 0 106.5 43.5T804-302q0 23-6.5 44T779-219l101 101-38 38ZM654-212q38 0 64-26t26-64q0-38-26-64t-64-26q-38 0-64 26t-26 64q0 38 26 64t64 26Z" fill="#d40055" stroke="#d40055"></path></svg></svg>