<svg xmlns="http://www.w3.org/2000/svg" version="1.1" xmlns:xlink="http://www.w3.org/1999/xlink" viewBox="6 6 36 36" width="40" height="40" fill="none"><svg xmlns="http://www.w3.org/2000/svg" height="48px" viewBox="0 -960 960 960" width="48px" fill="#d40055" stroke="#d40055"><path d="M328-120H180q-24 0-42-18t-18-42v-300q0-75 28.5-140.5t77-114q48.5-48.5 114-77T480-840q75 0 140.5 28.5t114 77q48.5 48.5 77 114T840-480v300q0 24-18 42t-42 18H632v-296h148v-64q0-125-87.5-212.5T480-780q-125 0-212.5 87.5T180-480v64h148v296Z" fill="#d40055" stroke="#d40055"></path></svg></svg>