<svg xmlns="http://www.w3.org/2000/svg" version="1.1" xmlns:xlink="http://www.w3.org/1999/xlink" viewBox="6 6 36 36" width="40" height="40" fill="none"><svg xmlns="http://www.w3.org/2000/svg" height="48px" viewBox="0 -960 960 960" width="48px" fill="#d40055" stroke="#d40055"><path d="M314-228h50v-88h88v-50h-88v-88h-50v88h-88v50h88v88Zm215-35h201v-49H529v49Zm0-107h201v-50H529v50ZM241-605h196v-50H241v50Zm-61 485q-24 0-42-18t-18-42v-600q0-24 18-42t42-18h600q24 0 42 18t18 42v600q0 24-18 42t-42 18H180Zm386-413 61-61 61 61 36-36-61-61 61-61-36-36-61 61-61-61-36 36 61 61-61 61 36 36Z" fill="#d40055" stroke="#d40055"></path></svg></svg>