<svg xmlns="http://www.w3.org/2000/svg" version="1.1" xmlns:xlink="http://www.w3.org/1999/xlink" viewBox="5.879085265636249 9.8932291250225 34.1067708749775 34.1067708749775" width="40" height="40" fill="none"><svg xmlns="http://www.w3.org/2000/svg" height="48px" viewBox="0 -960 960 960" width="48px" fill="#d40055" stroke="#d40055"><path d="M444-80q-42 0-78.5-8T298-112q32-119 87.5-230.5T535-529q-112 54-194.5 150T228-161q-4-4-7.5-7t-7.5-7q-45-45-69-103t-24-122q0-69 26-133t75-113q77-79 200-102.5t368-6.5q19 238-5.5 365T679-183q-48 50-109 76.5T444-80Z" fill="#d40055" stroke="#d40055"></path></svg></svg>