<svg xmlns="http://www.w3.org/2000/svg" version="1.1" xmlns:xlink="http://www.w3.org/1999/xlink" viewBox="2 1.9749999999999979 44 44" width="40" height="40" fill="none"><svg xmlns="http://www.w3.org/2000/svg" height="48px" viewBox="0 -960 960 960" width="48px" fill="#d40055" stroke="#d40055"><path d="M275-80q-97 0-166-70.5T40-315v-267h469v267q0 94-68.25 164.5T275-80Zm-86-306q13.6 0 22.8-9.2 9.2-9.2 9.2-22.8 0-13.6-9.2-22.8-9.2-9.2-22.8-9.2-13.6 0-22.8 9.2-9.2 9.2-9.2 22.8 0 13.6 9.2 22.8 9.2 9.2 22.8 9.2Zm88 155q41 0 74-18.5t33-51.5H170q0 33 33 51.5t74 18.5Zm85-155q13.6 0 22.8-9.2 9.2-9.2 9.2-22.8 0-13.6-9.2-22.8-9.2-9.2-22.8-9.2-13.6 0-22.8 9.2-9.2 9.2-9.2 22.8 0 13.6 9.2 22.8 9.2 9.2 22.8 9.2Zm324 7q-34 0-66-8.5T559-412v-219H449v-250h471v277q0 93-68.25 159T686-379Zm-85-297q13.6 0 22.8-10 9.2-10 9.2-22 0-13.6-9.2-22.8-9.2-9.2-22.8-9.2-13.6 0-22.8 9.2-9.2 9.2-9.2 22.8 0 12 9.2 22t22.8 10Zm-22 146h214q0-33-33.5-51.5T686-600q-30 0-68.5 16.58T579-530Zm194-146q13.6 0 22.8-10 9.2-10 9.2-22 0-13.6-9.2-22.8-9.2-9.2-22.8-9.2-13.6 0-22.8 9.2-9.2 9.2-9.2 22.8 0 12 9.2 22t22.8 10Z" fill="#d40055" stroke="#d40055"></path></svg></svg>