<svg xmlns="http://www.w3.org/2000/svg" version="1.1" xmlns:xlink="http://www.w3.org/1999/xlink" viewBox="5.080769178167497 4 40 40" width="40" height="40" fill="none"><svg xmlns="http://www.w3.org/2000/svg" height="48px" viewBox="0 -960 960 960" width="48px" fill="#d40055" stroke="#d40055"><path d="M240-80v-172q-57-52-88.5-121.5T120-520q0-150 105-255t255-105q125 0 221.5 73.5T827-615l55 218q4 14-5 25.5T853-360h-93v140q0 25-17.5 42.5T700-160H600v80H240Zm69-309q29 29 71 29t71-29l160-160q29-29 29-71t-29-71q-29-29-71-29t-71 29q-37-13-73-6t-61 32q-25 25-32 61t6 73q-29 29-29 71t29 71Z" fill="#d40055" stroke="#d40055"></path></svg></svg>