<svg xmlns="http://www.w3.org/2000/svg" version="1.1" xmlns:xlink="http://www.w3.org/1999/xlink" viewBox="4 4 40 40" width="40" height="40" fill="none"><svg xmlns="http://www.w3.org/2000/svg" height="48px" viewBox="0 -960 960 960" width="48px" fill="#d40055" stroke="#d40055"><path d="M580-370q29 0 49.5-20.5T650-440q0-29-20.5-49.5T580-510q-15 0-28 5.5T529-488l-120-60q1-3 1-6v-12q0-3-1-6l120-60q10 11 23 16.5t28 5.5q29 0 49.5-20.5T650-680q0-29-20.5-49.5T580-750q-29 0-49.5 20.5T510-680v6q0 3 1 6l-120 60q-10-11-23-16.5t-28-5.5q-29 0-49.5 20.5T270-560q0 29 20.5 49.5T340-490q15 0 28-5.5t23-16.5l120 60q-1 3-1 6v6q0 29 20.5 49.5T580-370ZM80-80v-740q0-24 18-42t42-18h680q24 0 42 18t18 42v520q0 24-18 42t-42 18H240L80-80Z" fill="#d40055" stroke="#d40055"></path></svg></svg>