<svg xmlns="http://www.w3.org/2000/svg" version="1.1" xmlns:xlink="http://www.w3.org/1999/xlink" viewBox="4 4 40 40" width="40" height="40" fill="none"><svg xmlns="http://www.w3.org/2000/svg" height="48px" viewBox="0 -960 960 960" width="48px" fill="#d40055" stroke="#d40055"><path d="M480-80q-83 0-156-31.5T197-197q-54-54-85.5-127T80-480q0-83 31.5-156T197-763q54-54 127-85.5T480-880q83 0 156 31.5T763-763q54 54 85.5 127T880-480q0 83-31.5 156T763-197q-54 54-127 85.5T480-80Zm0-160q100 0 170-70t70-170q0-51-19-94.5T650-650l-42 42q25 24 38.5 57t13.5 71q0 75-52.5 127.5T480-300q-75 0-127.5-52.5T300-480q0-38 14.5-71t38.5-57l-43-42q-32 32-51 75.5T240-480q0 100 70 170t170 70Zm-30-240h60v-240h-60v240Z" fill="#d40055" stroke="#d40055"></path></svg></svg>