<svg xmlns="http://www.w3.org/2000/svg" version="1.1" xmlns:xlink="http://www.w3.org/1999/xlink" viewBox="4 4 40 40" width="40" height="40" fill="none"><svg xmlns="http://www.w3.org/2000/svg" height="48px" viewBox="0 -960 960 960" width="48px" fill="#d40055" stroke="#d40055"><path d="M480-200Q338-303 269-406t-69-194q0-123 78.5-201.5T480-880q123 0 201.5 78.5T760-600q0 91-69 194T480-200Zm-1-320q34 0 57.5-23.5T560-600q0-33-23.5-56.5T479-680q-33 0-56 23.5T400-600q0 33 23 56.5t56 23.5ZM200-80v-60h560v60H200Z" fill="#d40055" stroke="#d40055"></path></svg></svg>