<svg xmlns="http://www.w3.org/2000/svg" version="1.1" xmlns:xlink="http://www.w3.org/1999/xlink" viewBox="4 4 40 40" width="40" height="40" fill="none"><svg xmlns="http://www.w3.org/2000/svg" height="48px" viewBox="0 -960 960 960" width="48px" fill="#d40055" stroke="#d40055"><path d="M480-80q-27 0-47.5-13T406-129h-14q-24 0-42-18t-18-42v-143q-66-43-104-110t-38-148q0-121 84.5-205.5T480-880q121 0 205.5 84.5T770-590q0 81-38 148T628-332v143q0 24-18 42t-42 18h-14q-6 23-26.5 36T480-80Zm-88-109h176v-44H392v44Zm0-84h176v-40H392v40Zm111-100v-137l92-92-31-31-84 84-84-84-31 31 92 92v137h46Z" fill="#d40055" stroke="#d40055"></path></svg></svg>