<svg fill="none" height="34" viewBox="0 0 34 34" width="34" xmlns="http://www.w3.org/2000/svg"><path d="m5.66667 25.5h22.66663c.7792 0 1.4167-.6375 1.4167-1.4167 0-.7791-.6375-1.4166-1.4167-1.4166h-22.66663c-.77917 0-1.41667.6375-1.41667 1.4166 0 .7792.6375 1.4167 1.41667 1.4167zm0-7.0833h22.66663c.7792 0 1.4167-.6375 1.4167-1.4167s-.6375-1.4167-1.4167-1.4167h-22.66663c-.77917 0-1.41667.6375-1.41667 1.4167s.6375 1.4167 1.41667 1.4167zm-1.41667-8.50003c0 .77913.6375 1.41663 1.41667 1.41663h22.66663c.7792 0 1.4167-.6375 1.4167-1.41663 0-.77917-.6375-1.41667-1.4167-1.41667h-22.66663c-.77917 0-1.41667.6375-1.41667 1.41667z" fill="#fff"/></svg>