<svg fill="none" height="20" viewBox="0 0 20 20" width="20" xmlns="http://www.w3.org/2000/svg"><path d="m13.3137 12.0598h-.6584l-.2333-.225c1-1.1667 1.5167-2.75837 1.2333-4.45003-.3916-2.31667-2.325-4.16667-4.6583-4.45-3.52499-.43334-6.49166 2.53333-6.05833 6.05833.28334 2.3333 2.13334 4.2667 4.45 4.6583 1.69167.2834 3.28333-.2333 4.45003-1.2333l.225.2333v.6584l3.5416 3.5416c.3417.3417.9.3417 1.2417 0 .3417-.3416.3417-.9 0-1.2416zm-5.00003 0c-2.075 0-3.75-1.675-3.75-3.75003 0-2.075 1.675-3.75 3.75-3.75 2.07503 0 3.75003 1.675 3.75003 3.75 0 2.07503-1.675 3.75003-3.75003 3.75003z" fill="#fff"/></svg>