<svg fill="none" height="24" viewBox="0 0 24 24" width="24" xmlns="http://www.w3.org/2000/svg"><path d="m5 10.0001v6.0111c0 .359 0 .5384.05465.6969.04834.1401.12722.2678.23093.3736.11729.1198.27782.2001.59888.3606l5.40004 2.7c.2623.1312.3935.1968.5311.2226.1219.0228.2469.0228.3688 0 .1376-.0258.2688-.0914.5311-.2226l5.4-2.7c.3211-.1605.4816-.2408.5989-.3606.1037-.1058.1826-.2335.2309-.3736.0547-.1585.0547-.3379.0547-.6969v-6.0111m-17-1.50004 9.6422-4.82111c.1312-.06559.1968-.09839.2656-.11129.0609-.01144.1235-.01144.1844 0 .0688.0129.1344.0457.2656.11129l9.6422 4.82111-9.6422 4.82114c-.1312.0656-.1968.0984-.2656.1113-.0609.0114-.1235.0114-.1844 0-.0688-.0129-.1344-.0457-.2656-.1113z" stroke="#fff" stroke-linecap="round" stroke-linejoin="round" stroke-width="2"/></svg>